# xmcd CD database file
#
# Track frame offsets:
#	150
#	8795
#	14840
#	21294
#	26467
#	33210
#	38485
#	43877
#	49595
#	56355
#	62397
#	70302
#	75477
#	82050
#	89640
#	97197
#	104895
#	110610
#	115737
#	122542
#	127554
#	132955
#	141707
#	146537
#	151597
#	158532
#	163834
#	171932
#	177500
#	183205
#	189292
#	198582
#	204402
#	211907
#	217922
#	225695
#	233925
#	239112
#	244280
#	251509
#	256800
#
# Disc length: 3536 seconds
#
# Revision: 0
# Processed by: cddbd v1.5.1PL0 Copyright (c) Steve Scherf et al.
# Submitted via: CDex 1.51
#
DISCID=3e0dce29
DTITLE=Irma Miria - Cantando os Salmos Ano A Vol I
DYEAR=2001
DGENRE=Religioso
TTITLE0=01 domingo Advento
TTITLE1=02 domingo Advento
TTITLE2=03 domingo Advento
TTITLE3=04 domingo Advento
TTITLE4=05 Natal Vigilia
TTITLE5=06 Natal Noite
TTITLE6=07 Natal Aurora
TTITLE7=08 Natal Dia
TTITLE8=09 Sagrada Familia 
TTITLE9=10 Maria mae de Deus 
TTITLE10=11 2 dom depois natal
TTITLE11=12 Epifania
TTITLE12=13 Batismo do Senhor
TTITLE13=14 Quaresma 1 dom
TTITLE14=15 Quaresma 2 dom
TTITLE15=16 Quaresma 3 dom
TTITLE16=17 Quaresma 4 dom
TTITLE17=18 Quaresma 5 dom
TTITLE18=19 Dom de Ramos
TTITLE19=20 Crirma-Quinta feira santa
TTITLE20=21 Ceia do Senhor
TTITLE21=22 Sexta Santa
TTITLE22=23 Vigilia Pasca 1
TTITLE23=24 Vigilia Pasca 1 opcao
TTITLE24=25 Vigilia Pasca 2
TTITLE25=26 Vigilia Pasca 3
TTITLE26=27 Vigilia Pasca 4
TTITLE27=28 Vigilia Pasca 5
TTITLE28=29 Vigilia Pasca 6
TTITLE29=30 Vigilia Pasca 7
TTITLE30=31 Leituras Novo Testamento
TTITLE31=32 Dia da Pascoa
TTITLE32=33 Sequencia Dia da Pascoa
TTITLE33=34 Pascoa 2 domingo
TTITLE34=35 Pascoa 3 domingo
TTITLE35=36 Pascoa 4 domingo
TTITLE36=37 Pascoa 5 domingo
TTITLE37=38 Pascoa 6 domingo
TTITLE38=39  Pascoa 7 domingo
TTITLE39=40 Ascensao
TTITLE40=41 Dom Pentecostes
EXTD=YEAR: 2001
EXTT0=
EXTT1=
EXTT2=
EXTT3=
EXTT4=
EXTT5=
EXTT6=
EXTT7=
EXTT8=
EXTT9=
EXTT10=
EXTT11=
EXTT12=
EXTT13=
EXTT14=
EXTT15=
EXTT16=
EXTT17=
EXTT18=
EXTT19=
EXTT20=
EXTT21=
EXTT22=
EXTT23=
EXTT24=
EXTT25=
EXTT26=
EXTT27=
EXTT28=
EXTT29=
EXTT30=
EXTT31=
EXTT32=
EXTT33=
EXTT34=
EXTT35=
EXTT36=
EXTT37=
EXTT38=
EXTT39=
EXTT40=
PLAYORDER=
